# xmcd
#
# Track frame offsets: 
#        150
#        22823
#        45447
#        68241
#        89159
#        108370
#        124634
#        148540
#        171571
#        195106
#        214609
#        236006
#        248742
#        257547
#        287111
#
# Disc length: 4152 seconds
#
# Revision: 0
# Processed by: cddbd v1.5.2PL0 Copyright (c) Steve Scherf et al.
# Submitted via: ExactAudioCopy v0.99pb3
#
DISCID=cf10360f
DTITLE=Derek Trucks Band - Already Free
DYEAR=2009
DGENRE=Blues
TTITLE0=Down In The Flood
TTITLE1=Something To Make You Happy
TTITLE2=Maybe This Time
TTITLE3=Sweet Inspiration
TTITLE4=Don't Miss Me
TTITLE5=Get What You Deserve
TTITLE6=Our Love
TTITLE7=Down Don't Bother Me
TTITLE8=Days Is Almost Gone
TTITLE9=Back Where I Started
TTITLE10=I Know
TTITLE11=Already Free
TTITLE12=Ballad Of The Chicken Robber
TTITLE13=Swamp Raga
TTITLE14=Long Time Man
EXTD=
EXTT0=
EXTT1=
EXTT2=
EXTT3=
EXTT4=
EXTT5=
EXTT6=
EXTT7=
EXTT8=
EXTT9=
EXTT10=
EXTT11=
EXTT12=
EXTT13=
EXTT14=
PLAYORDER=
